<?xml version="1.0" standalone="no"?>
<!DOCTYPE svg PUBLIC "-//W3C//DTD SVG 20010904//EN"
 "http://www.w3.org/TR/2001/REC-SVG-20010904/DTD/svg10.dtd">
<svg version="1.0" xmlns="http://www.w3.org/2000/svg"
 width="148.000000pt" height="43.000000pt" viewBox="0 0 148.000000 43.000000"
 preserveAspectRatio="xMidYMid meet">
<metadata>
Created by potrace 1.14, written by Peter Selinger 2001-2017
</metadata>
<g transform="translate(0.000000,43.000000) scale(0.100000,-0.100000)"
fill="#000000" stroke="none">
<path d="M40 220 l0 -160 160 0 160 0 0 160 0 160 -160 0 -160 0 0 -160z m310
28 l0 -122 -36 42 -35 42 -30 -23 -31 -22 -26 33 c-15 18 -30 32 -34 32 -4 0
-29 -24 -57 -52 l-51 -53 0 123 0 122 150 0 150 0 0 -122z m-118 -84 c7 3 20
11 29 17 13 10 22 5 52 -27 20 -21 37 -49 37 -61 0 -23 -1 -23 -150 -23 -177
0 -177 1 -99 92 l52 59 33 -32 c19 -18 38 -29 46 -25z"/>
</g>
</svg>
