<?xml version="1.0" ?><!DOCTYPE svg  PUBLIC '-//W3C//DTD SVG 1.1//EN'  'http://www.w3.org/Graphics/SVG/1.1/DTD/svg11.dtd'><svg height="21.362px" id="Capa_1" style="enable-background:new 0 0 20.026 21.362;" version="1.1" viewBox="0 0 20.026 21.362" width="20.026px" xml:space="preserve" xmlns="http://www.w3.org/2000/svg" xmlns:xlink="http://www.w3.org/1999/xlink"><g><path d="M6.443,1.458c0.11,0.934-0.401,1.725-0.401,1.725l0,0C5.849,3.506,3.419,7.082,4.74,11.111l0,0   c0.769,2.111,2.103,3.23,2.489,3.577l0,0c0.547,0.446,1.023,0.243,1.023,0.243l0,0c0,0,3.233-1.08,3.652-4.869l0,0   C12.361,5.933,10.082,1.828,5.498,0C5.498,0,6.353,0.69,6.443,1.458L6.443,1.458z" style="fill:#231F20;"/><path d="M9.793,15.243c-3.214,1.242-3.425,4.146-3.425,4.146l0,0c0,0-0.069,0.439,0.443,0.781l0,0   c0.391,0.233,1.669,1.061,3.687,1.188l0,0c3.816,0.126,6.388-2.712,6.627-2.946l0,0c0,0,0.575-0.606,1.415-0.737l0,0   c0.69-0.108,1.486,0.428,1.486,0.428c-1.849-2.331-4.421-3.466-7.002-3.466l0,0C11.931,14.637,10.835,14.841,9.793,15.243   L9.793,15.243z" style="fill:#231F20;"/><path d="M0.879,11.019c0.251,0.568,0.081,1.166,0.081,1.166l0,0c-0.06,0.241-0.899,2.969,0.716,5.255l0,0   c0.895,1.184,1.953,1.631,2.265,1.774l0,0c0.431,0.176,0.692-0.045,0.692-0.045l0,0c0,0,1.831-1.309,1.36-3.78l0,0   C5.48,12.694,3.246,10.547,0,10.282C0,10.282,0.673,10.552,0.879,11.019L0.879,11.019z" style="fill:#231F20;"/></g><g/><g/><g/><g/><g/><g/><g/><g/><g/><g/><g/><g/><g/><g/><g/></svg>